<?xml version="1.0" standalone="no"?><!DOCTYPE svg PUBLIC "-//W3C//DTD SVG 1.1//EN" "http://www.w3.org/Graphics/SVG/1.1/DTD/svg11.dtd"><svg t="1773491954012" class="icon" viewBox="0 0 1024 1024" version="1.1" xmlns="http://www.w3.org/2000/svg" p-id="1319" xmlns:xlink="http://www.w3.org/1999/xlink" width="200" height="200"><path d="M0 0h1024v1024H0z" fill="#FFFFFF" fill-opacity="0" p-id="1320"></path><path d="M511.872 57.6A246.4 246.4 0 0 1 659.2 501.44l6.016 2.432a402.56 402.56 0 0 1 248.704 357.376l0.256 14.72v52.032a38.4 38.4 0 0 1-76.8 0v-52.032a325.632 325.632 0 0 0-651.2 0v52.032a38.4 38.4 0 0 1-76.8 0v-52.032A402.56 402.56 0 0 1 358.4 503.872l6.016-2.368a246.272 246.272 0 0 1-98.624-184.832l-0.32-12.672A246.4 246.4 0 0 1 511.872 57.6z m0 76.8a169.6 169.6 0 1 0 0 339.2 169.6 169.6 0 0 0 0-339.2z" fill="#313233" p-id="1321"></path></svg>