<?xml version="1.0" standalone="no"?><!DOCTYPE svg PUBLIC "-//W3C//DTD SVG 1.1//EN" "http://www.w3.org/Graphics/SVG/1.1/DTD/svg11.dtd"><svg t="1773491901518" class="icon" viewBox="0 0 1024 1024" version="1.1" xmlns="http://www.w3.org/2000/svg" p-id="1163" xmlns:xlink="http://www.w3.org/1999/xlink" width="200" height="200"><path d="M0 0h1024v1024H0z" fill="#FFFFFF" fill-opacity="0" p-id="1164"></path><path d="M720 869.312a38.4 38.4 0 0 1 0 76.8h-416a38.4 38.4 0 0 1 0-76.8h416zM844.8 57.6c66.944 0 121.6 53.312 121.6 119.552v527.616c0 66.24-54.656 119.552-121.6 119.552H179.2c-66.944 0-121.6-53.312-121.6-119.552V177.152C57.6 110.912 112.256 57.6 179.2 57.6h665.6z m0 76.8H179.2c-24.96 0-44.8 19.392-44.8 42.752v527.616c0 23.424 19.84 42.752 44.8 42.752h665.6c24.96 0 44.8-19.328 44.8-42.752V177.152c0-23.36-19.84-42.752-44.8-42.752z" fill="#313233" p-id="1165"></path><path d="M331.2 448a38.4 38.4 0 0 1 38.4 38.4V576a38.4 38.4 0 1 1-76.8 0V486.4a38.4 38.4 0 0 1 38.4-38.4zM510.4 358.4a38.4 38.4 0 0 1 38.4 38.4V576a38.4 38.4 0 1 1-76.8 0V396.8a38.4 38.4 0 0 1 38.4-38.4zM689.6 268.8a38.4 38.4 0 0 1 38.4 38.4V576a38.4 38.4 0 1 1-76.8 0V307.2a38.4 38.4 0 0 1 38.4-38.4z" fill="#313233" p-id="1166"></path></svg>